<svg width="54" height="55" viewBox="0 0 54 55" fill="none" xmlns="http://www.w3.org/2000/svg">
    <rect width="54" height="54" transform="translate(0 0.193848)" fill="#F2F2F2"/>
    <path fill-rule="evenodd" clip-rule="evenodd" d="M15.75 8.63135C10.4688 8.63135 6.1875 12.9126 6.1875 18.1938V36.1939C6.1875 41.4751 10.4688 45.7564 15.75 45.7564H38.25C43.5312 45.7564 47.8125 41.4751 47.8125 36.1939V26.0688C47.8125 20.7876 43.5312 16.5063 38.25 16.5063H32.7237C29.9988 16.5063 27.4416 15.1904 25.8578 12.973C23.9505 10.3029 22.6453 8.63135 20.1513 8.63135H15.75ZM27 35.6314C26.068 35.6314 25.3125 36.3869 25.3125 37.3189C25.3125 38.2508 26.068 39.0064 27 39.0064H40.5C41.432 39.0064 42.1875 38.2508 42.1875 37.3189C42.1875 36.3869 41.432 35.6314 40.5 35.6314H27Z" fill="#F44F56"/>
    <path d="M24.75 11.4686V19.3188H45.0234C43.292 17.5815 40.8966 16.5063 38.25 16.5063H32.7237C29.9988 16.5063 27.4416 15.1904 25.8578 12.973C25.4685 12.4281 25.1043 11.9247 24.75 11.4686Z" fill="#F44F56"/>
    <path d="M27.2655 9.19385C27.6974 9.7391 28.0882 10.2875 28.4532 10.7997L28.6041 11.0114C29.5544 12.3418 31.0887 13.1313 32.7237 13.1313H38.25C41.5344 13.1313 44.5329 14.3552 46.8144 16.3717C45.5524 12.2173 41.6918 9.19385 37.125 9.19385H27.2655Z" fill="#F44F56"/>
</svg>
